<mxfile host="app.diagrams.net" modified="2021-03-11T15:31:08.944Z" agent="5.0 (X11)" etag="cL3lk2nKS3zW_mYL0BON" version="14.4.7" type="github">
  <diagram id="CG-9x8LlVpC6d5uzuI8_" name="Page-1">
    <mxGraphModel dx="1457" dy="335" grid="1" gridSize="10" guides="1" tooltips="1" connect="1" arrows="1" fold="1" page="1" pageScale="1" pageWidth="827" pageHeight="1169" math="0" shadow="0">
      <root>
        <mxCell id="0" />
        <mxCell id="1" parent="0" />
        <mxCell id="OR0XlhwMlfziQit9-Snt-1" value="&lt;div&gt;Serveur Proxmox: &quot;pve&quot;&lt;/div&gt;&lt;div&gt;&lt;ul&gt;&lt;li&gt;Windows R16 (AD/DNS/DHCP)&lt;/li&gt;&lt;li&gt;PfSense (NAT/Router)&lt;br&gt;&lt;/li&gt;&lt;/ul&gt;&lt;/div&gt;" style="rounded=1;whiteSpace=wrap;html=1;fillColor=#ffe6cc;strokeColor=#d79b00;" vertex="1" parent="1">
          <mxGeometry x="-200" y="320" width="230" height="90" as="geometry" />
        </mxCell>
        <mxCell id="OR0XlhwMlfziQit9-Snt-2" value="" style="endArrow=none;html=1;entryX=0.5;entryY=0;entryDx=0;entryDy=0;exitX=0.5;exitY=1;exitDx=0;exitDy=0;" edge="1" parent="1" source="OR0XlhwMlfziQit9-Snt-13" target="OR0XlhwMlfziQit9-Snt-1">
          <mxGeometry width="50" height="50" relative="1" as="geometry">
            <mxPoint x="150" y="205" as="sourcePoint" />
            <mxPoint x="310" y="280" as="targetPoint" />
            <Array as="points" />
          </mxGeometry>
        </mxCell>
        <mxCell id="OR0XlhwMlfziQit9-Snt-4" value="Routeur: &quot;RTROUT&quot;" style="rounded=1;whiteSpace=wrap;html=1;fillColor=#ffe6cc;strokeColor=#d79b00;" vertex="1" parent="1">
          <mxGeometry x="-190" y="170" width="200" height="70" as="geometry" />
        </mxCell>
        <mxCell id="OR0XlhwMlfziQit9-Snt-5" value="" style="endArrow=none;html=1;exitX=0.5;exitY=0;exitDx=0;exitDy=0;strokeColor=#B3B3B3;entryX=0.5;entryY=1;entryDx=0;entryDy=0;" edge="1" parent="1" source="OR0XlhwMlfziQit9-Snt-9" target="OR0XlhwMlfziQit9-Snt-6">
          <mxGeometry width="50" height="50" relative="1" as="geometry">
            <mxPoint x="100" y="240" as="sourcePoint" />
            <mxPoint x="-20" y="80" as="targetPoint" />
          </mxGeometry>
        </mxCell>
        <mxCell id="OR0XlhwMlfziQit9-Snt-6" value="WAN: 192.168.10.1/30" style="ellipse;whiteSpace=wrap;html=1;rounded=1;fillColor=#ffe6cc;strokeColor=#d79b00;" vertex="1" parent="1">
          <mxGeometry x="-150" y="20" width="120" height="80" as="geometry" />
        </mxCell>
        <mxCell id="OR0XlhwMlfziQit9-Snt-7" value="GE0/0: 192.168.10.2/30" style="text;html=1;strokeColor=none;fillColor=none;align=center;verticalAlign=middle;whiteSpace=wrap;rounded=0;" vertex="1" parent="1">
          <mxGeometry x="-160" y="150" width="140" height="20" as="geometry" />
        </mxCell>
        <mxCell id="OR0XlhwMlfziQit9-Snt-8" value="" style="endArrow=none;html=1;exitX=0.5;exitY=0;exitDx=0;exitDy=0;strokeColor=#B3B3B3;entryX=0.5;entryY=1;entryDx=0;entryDy=0;" edge="1" parent="1" source="OR0XlhwMlfziQit9-Snt-4" target="OR0XlhwMlfziQit9-Snt-7">
          <mxGeometry width="50" height="50" relative="1" as="geometry">
            <mxPoint x="-20" y="170" as="sourcePoint" />
            <mxPoint x="-20" y="110" as="targetPoint" />
          </mxGeometry>
        </mxCell>
        <mxCell id="OR0XlhwMlfziQit9-Snt-9" value="192.168.10.1/30" style="text;html=1;strokeColor=none;fillColor=none;align=center;verticalAlign=middle;whiteSpace=wrap;rounded=0;" vertex="1" parent="1">
          <mxGeometry x="-110" y="100" width="40" height="20" as="geometry" />
        </mxCell>
        <mxCell id="OR0XlhwMlfziQit9-Snt-10" value="" style="endArrow=none;html=1;exitX=0.5;exitY=0;exitDx=0;exitDy=0;strokeColor=#B3B3B3;entryX=0.5;entryY=1;entryDx=0;entryDy=0;strokeWidth=3;" edge="1" parent="1" source="OR0XlhwMlfziQit9-Snt-7" target="OR0XlhwMlfziQit9-Snt-9">
          <mxGeometry width="50" height="50" relative="1" as="geometry">
            <mxPoint x="-20" y="150" as="sourcePoint" />
            <mxPoint x="-20" y="110" as="targetPoint" />
          </mxGeometry>
        </mxCell>
        <mxCell id="OR0XlhwMlfziQit9-Snt-11" value="GE0/1: 192.168.11.1/30" style="text;html=1;strokeColor=none;fillColor=none;align=center;verticalAlign=middle;whiteSpace=wrap;rounded=0;" vertex="1" parent="1">
          <mxGeometry x="-160" y="240" width="150" height="20" as="geometry" />
        </mxCell>
        <mxCell id="OR0XlhwMlfziQit9-Snt-12" value="" style="endArrow=none;html=1;exitX=0.529;exitY=0.993;exitDx=0;exitDy=0;exitPerimeter=0;" edge="1" parent="1" source="OR0XlhwMlfziQit9-Snt-4" target="OR0XlhwMlfziQit9-Snt-11">
          <mxGeometry width="50" height="50" relative="1" as="geometry">
            <mxPoint x="80" y="205" as="sourcePoint" />
            <mxPoint x="250" y="205" as="targetPoint" />
            <Array as="points" />
          </mxGeometry>
        </mxCell>
        <mxCell id="OR0XlhwMlfziQit9-Snt-13" value="GB1: 192.168.11.2/30" style="text;html=1;strokeColor=none;fillColor=none;align=center;verticalAlign=middle;whiteSpace=wrap;rounded=0;" vertex="1" parent="1">
          <mxGeometry x="-150" y="300" width="130" height="20" as="geometry" />
        </mxCell>
        <mxCell id="OR0XlhwMlfziQit9-Snt-14" value="" style="endArrow=none;html=1;entryX=0.5;entryY=0;entryDx=0;entryDy=0;exitX=0.5;exitY=1;exitDx=0;exitDy=0;fillColor=#d5e8d4;strokeColor=#82b366;strokeWidth=3;" edge="1" parent="1" source="OR0XlhwMlfziQit9-Snt-11" target="OR0XlhwMlfziQit9-Snt-13">
          <mxGeometry width="50" height="50" relative="1" as="geometry">
            <mxPoint x="120" y="205" as="sourcePoint" />
            <mxPoint x="250" y="205" as="targetPoint" />
            <Array as="points" />
          </mxGeometry>
        </mxCell>
        <mxCell id="OR0XlhwMlfziQit9-Snt-17" value="" style="endArrow=none;dashed=1;html=1;strokeColor=#FF0000;strokeWidth=5;" edge="1" parent="1">
          <mxGeometry width="50" height="50" relative="1" as="geometry">
            <mxPoint x="-280" y="130" as="sourcePoint" />
            <mxPoint x="80" y="130" as="targetPoint" />
          </mxGeometry>
        </mxCell>
        <mxCell id="OR0XlhwMlfziQit9-Snt-19" value="SWITCH: &quot;MUTLAB&quot;" style="rounded=1;whiteSpace=wrap;html=1;fillColor=#ffe6cc;strokeColor=#d79b00;" vertex="1" parent="1">
          <mxGeometry x="-330" y="500" width="490" height="60" as="geometry" />
        </mxCell>
        <mxCell id="OR0XlhwMlfziQit9-Snt-21" value="" style="endArrow=none;html=1;strokeWidth=3;entryX=0.5;entryY=1;entryDx=0;entryDy=0;exitX=0.5;exitY=0;exitDx=0;exitDy=0;strokeColor=#B3B3B3;" edge="1" parent="1" source="OR0XlhwMlfziQit9-Snt-29" target="OR0XlhwMlfziQit9-Snt-1">
          <mxGeometry width="50" height="50" relative="1" as="geometry">
            <mxPoint x="-80" y="470" as="sourcePoint" />
            <mxPoint x="-30" y="420" as="targetPoint" />
          </mxGeometry>
        </mxCell>
        <mxCell id="OR0XlhwMlfziQit9-Snt-23" value="GB3: 192.168.1.3" style="text;html=1;strokeColor=none;fillColor=none;align=center;verticalAlign=middle;whiteSpace=wrap;rounded=0;" vertex="1" parent="1">
          <mxGeometry x="-255" y="410" width="105" height="20" as="geometry" />
        </mxCell>
        <mxCell id="OR0XlhwMlfziQit9-Snt-24" value="" style="endArrow=none;html=1;strokeColor=#FF0000;strokeWidth=3;entryX=0.5;entryY=1;entryDx=0;entryDy=0;exitX=0.5;exitY=0;exitDx=0;exitDy=0;" edge="1" parent="1" source="OR0XlhwMlfziQit9-Snt-27" target="OR0XlhwMlfziQit9-Snt-23">
          <mxGeometry width="50" height="50" relative="1" as="geometry">
            <mxPoint x="-207.5" y="500" as="sourcePoint" />
            <mxPoint x="-200" y="410" as="targetPoint" />
            <Array as="points" />
          </mxGeometry>
        </mxCell>
        <mxCell id="OR0XlhwMlfziQit9-Snt-27" value="FE0/23" style="text;html=1;strokeColor=none;fillColor=none;align=center;verticalAlign=middle;whiteSpace=wrap;rounded=0;" vertex="1" parent="1">
          <mxGeometry x="-222.5" y="480" width="40" height="20" as="geometry" />
        </mxCell>
        <mxCell id="OR0XlhwMlfziQit9-Snt-29" value="GB4: 192.168.1.2" style="text;html=1;strokeColor=none;fillColor=none;align=center;verticalAlign=middle;whiteSpace=wrap;rounded=0;" vertex="1" parent="1">
          <mxGeometry x="-135" y="410" width="100" height="20" as="geometry" />
        </mxCell>
        <mxCell id="OR0XlhwMlfziQit9-Snt-30" value="" style="endArrow=none;html=1;strokeWidth=3;entryX=0.5;entryY=1;entryDx=0;entryDy=0;exitX=0.5;exitY=0;exitDx=0;exitDy=0;strokeColor=#B3B3B3;" edge="1" parent="1" source="OR0XlhwMlfziQit9-Snt-31" target="OR0XlhwMlfziQit9-Snt-29">
          <mxGeometry width="50" height="50" relative="1" as="geometry">
            <mxPoint x="-85" y="500" as="sourcePoint" />
            <mxPoint x="-85" y="410" as="targetPoint" />
          </mxGeometry>
        </mxCell>
        <mxCell id="OR0XlhwMlfziQit9-Snt-31" value="FE0/24" style="text;html=1;strokeColor=none;fillColor=none;align=center;verticalAlign=middle;whiteSpace=wrap;rounded=0;" vertex="1" parent="1">
          <mxGeometry x="-105" y="480" width="40" height="20" as="geometry" />
        </mxCell>
        <mxCell id="OR0XlhwMlfziQit9-Snt-33" value="GB2: 192.168.1.1" style="text;html=1;strokeColor=none;fillColor=none;align=center;verticalAlign=middle;whiteSpace=wrap;rounded=0;" vertex="1" parent="1">
          <mxGeometry x="-20" y="410" width="110" height="20" as="geometry" />
        </mxCell>
        <mxCell id="OR0XlhwMlfziQit9-Snt-34" value="" style="endArrow=none;html=1;strokeWidth=3;entryX=0.5;entryY=1;entryDx=0;entryDy=0;exitX=0.5;exitY=0;exitDx=0;exitDy=0;strokeColor=#FFFF00;" edge="1" parent="1" source="OR0XlhwMlfziQit9-Snt-35" target="OR0XlhwMlfziQit9-Snt-33">
          <mxGeometry width="50" height="50" relative="1" as="geometry">
            <mxPoint x="37.5" y="500" as="sourcePoint" />
            <mxPoint x="30" y="410" as="targetPoint" />
          </mxGeometry>
        </mxCell>
        <mxCell id="OR0XlhwMlfziQit9-Snt-35" value="GE0/2" style="text;html=1;strokeColor=none;fillColor=none;align=center;verticalAlign=middle;whiteSpace=wrap;rounded=0;" vertex="1" parent="1">
          <mxGeometry x="15" y="480" width="40" height="20" as="geometry" />
        </mxCell>
        <mxCell id="OR0XlhwMlfziQit9-Snt-38" value="&lt;div&gt;W.S R16 &lt;br&gt;&lt;/div&gt;&lt;div&gt;AD/DNS/DHCP&lt;br&gt;&lt;/div&gt;" style="text;html=1;align=center;verticalAlign=middle;whiteSpace=wrap;rounded=0;labelBackgroundColor=none;fontColor=#FF0044;" vertex="1" parent="1">
          <mxGeometry x="-292.5" y="440" width="70" height="20" as="geometry" />
        </mxCell>
        <mxCell id="OR0XlhwMlfziQit9-Snt-40" value="N°23" style="text;html=1;strokeColor=none;fillColor=none;align=center;verticalAlign=middle;whiteSpace=wrap;rounded=0;labelBackgroundColor=none;fontColor=#A680B8;" vertex="1" parent="1">
          <mxGeometry x="-200" y="440" width="40" height="20" as="geometry" />
        </mxCell>
        <mxCell id="OR0XlhwMlfziQit9-Snt-41" value="&lt;font color=&quot;#B3B3B3&quot;&gt;Proxmox&lt;/font&gt;" style="text;html=1;strokeColor=none;fillColor=none;align=center;verticalAlign=middle;whiteSpace=wrap;rounded=0;labelBackgroundColor=none;fontColor=#FF0044;" vertex="1" parent="1">
          <mxGeometry x="-130" y="440" width="40" height="20" as="geometry" />
        </mxCell>
        <mxCell id="OR0XlhwMlfziQit9-Snt-42" value="N°15" style="text;html=1;strokeColor=none;fillColor=none;align=center;verticalAlign=middle;whiteSpace=wrap;rounded=0;labelBackgroundColor=none;fontColor=#A680B8;" vertex="1" parent="1">
          <mxGeometry x="-80" y="440" width="30" height="20" as="geometry" />
        </mxCell>
        <mxCell id="OR0XlhwMlfziQit9-Snt-43" value="N°16" style="text;html=1;strokeColor=none;fillColor=none;align=center;verticalAlign=middle;whiteSpace=wrap;rounded=0;labelBackgroundColor=none;fontColor=#A680B8;" vertex="1" parent="1">
          <mxGeometry x="40" y="440" width="30" height="20" as="geometry" />
        </mxCell>
        <mxCell id="OR0XlhwMlfziQit9-Snt-44" value="PfSense" style="text;html=1;strokeColor=none;fillColor=none;align=center;verticalAlign=middle;whiteSpace=wrap;rounded=0;labelBackgroundColor=none;fontColor=#FFFF00;" vertex="1" parent="1">
          <mxGeometry x="-20" y="440" width="50" height="20" as="geometry" />
        </mxCell>
      </root>
    </mxGraphModel>
  </diagram>
</mxfile>
